<svg xmlns="http://www.w3.org/2000/svg" viewBox="0 0 54 60">
  <!-- S-Chain link icon — Sportsplayer TM -->
  <!-- Bottom oval ring (behind in interlock) -->
  <g transform="rotate(12 30 37)">
    <path fill="white" fill-rule="evenodd" d="M49,37 A19,13 0 1,0 11,37 A19,13 0 1,0 49,37 Z M40,37 A10,6.5 0 1,0 20,37 A10,6.5 0 1,0 40,37 Z"/>
  </g>
  <!-- Top oval ring (in front) -->
  <g transform="rotate(-12 22 21)">
    <path fill="white" fill-rule="evenodd" d="M41,21 A19,13 0 1,0 3,21 A19,13 0 1,0 41,21 Z M32,21 A10,6.5 0 1,0 12,21 A10,6.5 0 1,0 32,21 Z"/>
  </g>
</svg>
